# xmcd
#
# Track frame offsets: 
#        150
#        18197
#        51244
#        63539
#        81586
#        95951
#        124941
#        142006
#        166443
#        187738
#        197970
#        218230
#        238407
#        254909
#        291016
#
# Disc length: 9558 seconds
#
# Revision: 0
# Processed by: cddbd v1.5.2PL0 Copyright (c) Steve Scherf et al.
# Submitted via: ExactAudioCopy v1.0b1
#
DISCID=f525540f
DTITLE=Bob Margolin - All-Star Blues Jam
DYEAR=2003
DGENRE=Blues
TTITLE0=Brutal-Hearted Woman
TTITLE1=Sweet (Little) Black Angel
TTITLE2=One Day You're Gonna Get Lucky
TTITLE3=I'll Take Care Of You
TTITLE4=Juke
TTITLE5=Mean Old Chicago
TTITLE6=Always On My Mind
TTITLE7=Easy To Love You
TTITLE8=Last Time
TTITLE9=Maybe The Hippies Were Right
TTITLE10=County Boy
TTITLE11=Crazy 'Bout You Baby
TTITLE12=My New Baby Owns A Whiskey Store
TTITLE13=Goin' Down Slow
TTITLE14=Just a Closer Walk with Thee
EXTD=
EXTT0=
EXTT1=
EXTT2=
EXTT3=
EXTT4=
EXTT5=
EXTT6=
EXTT7=
EXTT8=
EXTT9=
EXTT10=
EXTT11=
EXTT12=
EXTT13=
EXTT14=
PLAYORDER=
